<mxfile host="app.diagrams.net" modified="2022-09-24T00:17:40.186Z" agent="5.0 (Macintosh; Intel Mac OS X 10_15_7) AppleWebKit/537.36 (KHTML, like Gecko) Chrome/104.0.0.0 Safari/537.36" etag="rXQlE6JJpsym3PHzZdyx" version="20.3.6" type="github">
  <diagram id="G_BdRagmvuzkdLT6IDJI" name="PÃ¡gina-1">
    <mxGraphModel dx="1186" dy="771" grid="1" gridSize="10" guides="1" tooltips="1" connect="1" arrows="1" fold="1" page="1" pageScale="1" pageWidth="827" pageHeight="1169" math="0" shadow="0">
      <root>
        <mxCell id="0" />
        <mxCell id="1" parent="0" />
        <mxCell id="SoQUZGw-r8vB53DZaCTV-16" style="edgeStyle=orthogonalEdgeStyle;rounded=0;orthogonalLoop=1;jettySize=auto;html=1;exitX=0.5;exitY=1;exitDx=0;exitDy=0;entryX=0.5;entryY=0;entryDx=0;entryDy=0;" edge="1" parent="1" source="SoQUZGw-r8vB53DZaCTV-1" target="SoQUZGw-r8vB53DZaCTV-11">
          <mxGeometry relative="1" as="geometry" />
        </mxCell>
        <mxCell id="SoQUZGw-r8vB53DZaCTV-1" value="Home (no login)" style="rounded=0;whiteSpace=wrap;html=1;" vertex="1" parent="1">
          <mxGeometry x="300" y="70" width="120" height="80" as="geometry" />
        </mxCell>
        <mxCell id="SoQUZGw-r8vB53DZaCTV-14" style="edgeStyle=orthogonalEdgeStyle;rounded=0;orthogonalLoop=1;jettySize=auto;html=1;exitX=1;exitY=0.5;exitDx=0;exitDy=0;entryX=0.5;entryY=0;entryDx=0;entryDy=0;" edge="1" parent="1" source="SoQUZGw-r8vB53DZaCTV-11" target="SoQUZGw-r8vB53DZaCTV-12">
          <mxGeometry relative="1" as="geometry" />
        </mxCell>
        <mxCell id="SoQUZGw-r8vB53DZaCTV-15" style="edgeStyle=orthogonalEdgeStyle;rounded=0;orthogonalLoop=1;jettySize=auto;html=1;exitX=0;exitY=0.5;exitDx=0;exitDy=0;entryX=0.5;entryY=0;entryDx=0;entryDy=0;" edge="1" parent="1" source="SoQUZGw-r8vB53DZaCTV-11" target="SoQUZGw-r8vB53DZaCTV-13">
          <mxGeometry relative="1" as="geometry" />
        </mxCell>
        <mxCell id="SoQUZGw-r8vB53DZaCTV-11" value="" style="rhombus;whiteSpace=wrap;html=1;" vertex="1" parent="1">
          <mxGeometry x="320" y="190" width="80" height="80" as="geometry" />
        </mxCell>
        <mxCell id="SoQUZGw-r8vB53DZaCTV-28" style="edgeStyle=orthogonalEdgeStyle;rounded=0;orthogonalLoop=1;jettySize=auto;html=1;exitX=1;exitY=0.5;exitDx=0;exitDy=0;entryX=0.5;entryY=0;entryDx=0;entryDy=0;" edge="1" parent="1" source="SoQUZGw-r8vB53DZaCTV-12" target="SoQUZGw-r8vB53DZaCTV-19">
          <mxGeometry relative="1" as="geometry">
            <mxPoint x="560" y="350" as="targetPoint" />
          </mxGeometry>
        </mxCell>
        <mxCell id="SoQUZGw-r8vB53DZaCTV-12" value="Register" style="rounded=0;whiteSpace=wrap;html=1;" vertex="1" parent="1">
          <mxGeometry x="420" y="250" width="120" height="80" as="geometry" />
        </mxCell>
        <mxCell id="SoQUZGw-r8vB53DZaCTV-20" style="edgeStyle=orthogonalEdgeStyle;rounded=0;orthogonalLoop=1;jettySize=auto;html=1;exitX=0;exitY=0.5;exitDx=0;exitDy=0;entryX=0.5;entryY=0;entryDx=0;entryDy=0;" edge="1" parent="1" source="SoQUZGw-r8vB53DZaCTV-13" target="SoQUZGw-r8vB53DZaCTV-19">
          <mxGeometry relative="1" as="geometry" />
        </mxCell>
        <mxCell id="SoQUZGw-r8vB53DZaCTV-13" value="Login" style="rounded=0;whiteSpace=wrap;html=1;" vertex="1" parent="1">
          <mxGeometry x="180" y="250" width="120" height="80" as="geometry" />
        </mxCell>
        <mxCell id="SoQUZGw-r8vB53DZaCTV-17" value="Home &lt;br&gt;(login estudiante)" style="rounded=0;whiteSpace=wrap;html=1;" vertex="1" parent="1">
          <mxGeometry x="180" y="480" width="120" height="80" as="geometry" />
        </mxCell>
        <mxCell id="SoQUZGw-r8vB53DZaCTV-18" value="Home &lt;br&gt;(login profesor)" style="rounded=0;whiteSpace=wrap;html=1;" vertex="1" parent="1">
          <mxGeometry x="420" y="480" width="120" height="80" as="geometry" />
        </mxCell>
        <mxCell id="SoQUZGw-r8vB53DZaCTV-21" style="edgeStyle=orthogonalEdgeStyle;rounded=0;orthogonalLoop=1;jettySize=auto;html=1;exitX=1;exitY=0.5;exitDx=0;exitDy=0;" edge="1" parent="1" source="SoQUZGw-r8vB53DZaCTV-19" target="SoQUZGw-r8vB53DZaCTV-18">
          <mxGeometry relative="1" as="geometry" />
        </mxCell>
        <mxCell id="SoQUZGw-r8vB53DZaCTV-22" style="edgeStyle=orthogonalEdgeStyle;rounded=0;orthogonalLoop=1;jettySize=auto;html=1;exitX=0;exitY=0.5;exitDx=0;exitDy=0;entryX=0.5;entryY=0;entryDx=0;entryDy=0;" edge="1" parent="1" source="SoQUZGw-r8vB53DZaCTV-19" target="SoQUZGw-r8vB53DZaCTV-17">
          <mxGeometry relative="1" as="geometry" />
        </mxCell>
        <mxCell id="SoQUZGw-r8vB53DZaCTV-19" value="" style="rhombus;whiteSpace=wrap;html=1;" vertex="1" parent="1">
          <mxGeometry x="320" y="390" width="80" height="80" as="geometry" />
        </mxCell>
      </root>
    </mxGraphModel>
  </diagram>
</mxfile>
